/* XPM */
static char *result[] = {
/* columns rows colors chars-per-pixel */
"50 50 2 1 ",
"  c #EFD90F",
". c None",
/* pixels */
"..................................................",
"..................................................",
"..................................................",
"..................................................",
"..................................................",
"..................................................",
".....................          ...................",
"..................                ................",
"................                    ..............",
"..............                        ............",
".............                          ...........",
"............                            ..........",
"...........                              .........",
"..........                                ........",
".........                                  .......",
".........                                  .......",
"........                                    ......",
"........                                ..........",
".......                                 ..........",
".......                             ..............",
".......                             ..............",
"......                          ..................",
"......                          ..................",
"......                      ......................",
"......                      ......................",
"......                    ........................",
"......                    ........................",
"......                      ......................",
"......                      ......................",
"......                          ..................",
"......                          ..................",
".......                             ..............",
".......                             ..............",
".......                                 ..........",
"........                                ..........",
"........                                    ......",
".........                                  .......",
".........                                  .......",
"..........                                ........",
"...........                              .........",
"............                            ..........",
".............                          ...........",
"..............                        ............",
"................                    ..............",
"..................                ................",
".....................          ...................",
"..................................................",
"..................................................",
"..................................................",
".................................................."
};
