/* XPM */
static char *e93fd9ed9b774772d1e3d256fbb68b88oSLXyQr6AAapNZRa[] = {
/* columns rows colors chars-per-pixel */
"50 50 4 1 ",
"  c None",
". c #0055D4",
"X c #00EFC0",
"o c white",
/* pixels */
"                                                  ",
"                                                  ",
"                                                  ",
"                    XXXXXXXXXXXX                  ",
"                    XXXXXXXXXXXX                  ",
"                    XXXXXXXXXXXX                  ",
"             XXXXXXXXXXXXXXXXXXXXXXXX             ",
"             XXXXXXXXXXXXXXXXXXXXXXXX             ",
"             XXXXXXXXXXXXXXXXXXXXXXXX             ",
"          XXXXXXXXXXXXXXXXXXXXXXXXXXXXXX          ",
"          XXXXXXXXXXXXXXXXXXXXXXXXXXXXXX          ",
"          XXXXXXXXXXXXXXXXXXXXXXXXXXXXXX          ",
"          XXXXXXXXXXXXXXXXXXXXXXXXXXXXXX          ",
"       XXXXXXXXXoooooooXXXXXXXXXXXooooooXXX       ",
"       XXXXXXXXXoooooooXXXXXXXXXXXooooooXXX       ",
"       XXXXXXXXXoooooooXXXXXXXXXXXooooooXXX       ",
"       XXXXXXoooooooooooooXXXXooooooooooooo       ",
"       XXXXXXoooooooooooooXXXXooooooooooooo       ",
"       XXXXXXoooooooooooooXXXXooooooooooooo       ",
"       XXXXXXooooooo......XXXXooooooo......       ",
"       XXXXXXooooooo......XXXXooooooo......       ",
"       XXXXXXooooooo......XXXXooooooo......       ",
"    XXXXXXXXXooooooo......XXXXooooooo......XXX    ",
"    XXXXXXXXXooooooo......XXXXooooooo......XXX    ",
"    XXXXXXXXXooooooo......XXXXooooooo......XXX    ",
"    XXXXXXXXXXXXoooooooXXXXXXXXXXXooooooXXXXXX    ",
"    XXXXXXXXXXXXoooooooXXXXXXXXXXXooooooXXXXXX    ",
"    XXXXXXXXXXXXoooooooXXXXXXXXXXXooooooXXXXXX    ",
"    XXXXXXXXXXXXXXXXXXXXXXXXXXXXXXXXXXXXXXXXXX    ",
"    XXXXXXXXXXXXXXXXXXXXXXXXXXXXXXXXXXXXXXXXXX    ",
"    XXXXXXXXXXXXXXXXXXXXXXXXXXXXXXXXXXXXXXXXXX    ",
"    XXXXXXXXXXXXXXXXXXXXXXXXXXXXXXXXXXXXXXXXXX    ",
"    XXXXXXXXXXXXXXXXXXXXXXXXXXXXXXXXXXXXXXXXXX    ",
"    XXXXXXXXXXXXXXXXXXXXXXXXXXXXXXXXXXXXXXXXXX    ",
"    XXXXXXXXXXXXXXXXXXXXXXXXXXXXXXXXXXXXXXXXXX    ",
"    XXXXXXXXXXXXXXXXXXXXXXXXXXXXXXXXXXXXXXXXXX    ",
"    XXXXXXXXXXXXXXXXXXXXXXXXXXXXXXXXXXXXXXXXXX    ",
"    XXXXXXXXXXXXXXXXXXXXXXXXXXXXXXXXXXXXXXXXXX    ",
"    XXXXXXXXXXXXXXXXXXXXXXXXXXXXXXXXXXXXXXXXXX    ",
"    XXXXXX   XXXXXXXXXX      XXXXXXXX   XXXXXX    ",
"    XXXXXX   XXXXXXXXXX      XXXXXXXX   XXXXXX    ",
"    XXXXXX   XXXXXXXXXX      XXXXXXXX   XXXXXX    ",
"    XXX         XXXXXXX      XXXXX         XXX    ",
"    XXX         XXXXXXX      XXXXX         XXX    ",
"    XXX         XXXXXXX      XXXXX         XXX    ",
"                                                  ",
"                                                  ",
"                                                  ",
"                                                  ",
"                                                  "
};
