/* XPM */
static char *_b0c04a076224707aee57917b7c1a10fOIlI4gFP8yPqPvLT[] = {
/* columns rows colors chars-per-pixel */
"50 50 7 1 ",
"  c #9A6D06",
". c #0DFF00",
"X c #50D022",
"o c #D08D22",
"O c #AFFF00",
"+ c #5CD1DC",
"@ c white",
/* pixels */
"ooooooooo   XX++++++XXXXXXXXXXXXX      ooooooooooo",
"ooooooooo   XX++++++XXXXXXXXXXXXX      ooooooooooo",
"oooooo   XXXXXOO+XX...........XXXXXXXXX     oooooo",
"ooo   XXXXXOOOOOXXXXXXX@@@@XXX...XXXXOOXXXXX   ooo",
"ooo   XXXXXOOOOOXXXXXXX@@@@XXX...XXXXOOXXXXX   ooo",
"oo XXX..XXXX....XXXX@@@@@@@@XXXXX.XXXXXOOOOOXXX oo",
"  X...XXXXX...XXXXXXXXXXX@@XXXXOOXXX.XXXXXOOOXXX  ",
"  X...XXXXX...XXXXXXXXXXX@@XXXXOOXXX.XXXXXOOOXXX  ",
"XX...XXXXXX.XXXXOXXXXXXXXXXXXXXXXOXXX..XXXXXOOOX  ",
"...XXXXXXXXXOOOOXXX...XXXXXXXXXXXXXXXXX.....XXXOXX",
"...XXXXXXXXXOOOOXXX...XXXXXXXXXXXXXXXXX.....XXXOXX",
"XXXXXXXX.XXXOOXX...XXXX....XXXXXXXXXXXXXXX...XXXXX",
"XXXXXXXX.XXXOOXX...XXXX....XXXXXXXXXXXXXXX...XXXXX",
"XXXXXXXX.XXOXXXXXXXXXXXXXXX.XXXXXXXX@@@XXXXX.XXXXX",
"XXXXXXXX.XXXXXXX@XXXXXXXXXXX...XXOXX@@@@@@XXX..XXX",
"XXXXXXXX.XXXXXXX@XXXXXXXXXXX...XXOXX@@@@@@XXX..XXX",
"XXXXXX..XXXX@@@@@XXXXXXXXXXXXX...OOOXXXXX@XXX..XXX",
"XXXXXX..XXX@@@@@XXXXXXXXXXXXXXX..XOOOXXXXX..XXX.XX",
"XXXXXX..XXX@@@@@XXXXXXXXXXXXXXX..XOOOXXXXX..XXX.XX",
"XX@@@X..XXXXXXXXXXX....XXXXXOOXXX.XXOOOXXX..XXXXXX",
"XX@XXXXXXXXXXXXXXOOXXX...XXXOOXXX.XXXOOXXX..XXXXXX",
"XX@XXXXXXXXXXXXXXOOXXX...XXXOOXXX.XXXOOXXX..XXXXXX",
"XXXXXXXXXXXXXXXXXXXOXXX....XXXOXXX..XXXXXX..XXXXXX",
"OOX..XXXXXXOXXXXXXXOOOXXXXXXXXOXXXXXXXXXXX..X@@@XX",
"OOX..XXXXXXOXXXXXXXOOOXXXXXXXXOXXXXXXXXXXX..X@@@XX",
"OOX...XXXXXOXX..XXXXOOXXXXXXXXOXXXXX.XXXX...XXX@XX",
"OOX...XXXXXOXX..XXXXOOXXXXXXXXOXXXXX.XXXX...XXX@XX",
"OOXXX.XXXXXOXXXX.XXXXXXXXXXXXXOXX...XXXXX.XXXXXXXX",
"OOXXX.XXXXXXXXXXX..XXXXXXXXXXXXXXXXXXXXXXXXXXXXX..",
"OOXXX.XXXXXXXXXXX..XXXXXXXXXXXXXXXXXXXXXXXXXXXXX..",
"XXXXXX..XXXXXXXXXXXXXX@@@XXXXXXXXXXXXOOXXXXXXXXX..",
"XXXXXXXX...XXXXXXXXX@@@XXXXXXX...XXXOXXXXXXXX...XX",
"XXXXXXXX...XXXXXXXXX@@@XXXXXXX...XXXOXXXXXXXX...XX",
"XX.XXXOOOXX.XXXXXXXOOOXXX......XXXOOOXXXXXXXX..XXX",
"XX.XXXXXOOOX....XXXXOOOXXXXXXXXXXOOOXXXXXX...OOXXX",
"XX.XXXXXOOOX....XXXXOOOXXXXXXXXXXOOOXXXXXX...OOXXX",
"XXX..XXXXOOXXXXX...XXXXXXXXXXXXOOXXXXXXXX.XXOOOXXX",
"XXX..XXXXOOXXXXX...XXXXXXXXXXXXOOXXXXXXXX.XXOOOXXX",
"XXX..XXX@XXOXXXXXXX......XXXXXXXXXXXX....XOOOXXXXX",
"  XXX.XX@@@XOOOOOXXXXXX....XXXXXXXXXXOOOOOOOXXX...",
"  XXX.XX@@@XOOOOOXXXXXX....XXXXXXXXXXOOOOOOOXXX...",
"  XXXXXX...XXXXXOOOXXXXXX..XXX@XXXXXXXXXXXXXX...XX",
"  XXXXXXX..........XXXXXXXXX@@@@@XXXXXXXX.XXX..X  ",
"  XXXXXXX..........XXXXXXXXX@@@@@XXXXXXXX.XXX..X  ",
"oo XXXXXXXXXXXXXX...XXXXX@@@@@@XXXXX.....XXXXXXX  ",
"ooo   XXX...XXXXXXXXOOOXXXXXXXXXX....XXXXXXXX   oo",
"ooo   XXX...XXXXXXXXOOOXXXXXXXXXX....XXXXXXXX   oo",
"oooooo   XX........XXXOOOOOOOO...XXXXXXXX    ooooo",
"ooooooooo     XXXXXXXXXXXXXXXXXXXXXX     ooooooooo",
"ooooooooo     XXXXXXXXXXXXXXXXXXXXXX     ooooooooo"
};
