/* XPM */
static char *a76c88bbaa9f4ba8b5004ceb030e3527TMxVKQZ2slNXn9uZ[] = {
/* columns rows colors chars-per-pixel */
"50 50 7 1 ",
"  c #996D0E",
". c #15FF00",
"X c #51CF27",
"o c #CF8C27",
"O c #AEFF00",
"+ c #5CD0DB",
"@ c white",
/* pixels */
"oooooo     XXXXXXXXXOOOOOOOXXXXXXXXXXXX..X  oooooo",
"oooooo     XXXXXXXXXOOOOOOOXXXXXXXXXXXX..X  oooooo",
"ooooo XXXXXXXX...XXXXXXXXXXX@@@XXXXXXXX...XX ooooo",
"ooo  XXXXXX...XXXXXXXXX....XXX@XXXXXXXXXX...X  ooo",
"ooo  XXXXXX...XXXXXXXXX....XXX@XXXXXXXXXX...X  ooo",
"ooo  XXXX..XXXXXXXXX.....XXXXXXXXXXXXXXXXX..X  ooo",
"oo XXXXXXXXXXXXXOXX.XXXXXXXXXX....XXXXXXXXXX.XX oo",
"oo XXXXXXXXXXXXXOXX.XXXXXXXXXX....XXXXXXXXXX.XX oo",
"oo XXXXX.@@@XXOOO..XXXXXXXXXXXXXXX.....XXXXXXXX oo",
"  X..X...@@XOOOOX..XXXXXXXXXXXXXXXXXXXXXXXXXXXXX  ",
"  X..X...@@XOOOOX..XXXXXXXXXXXXXXXXXXXXXXXXXXXXX  ",
"  ...X..XXXOXXXX.XXXXXOOOOOXXXX@@XXXOXXXX...XOOX  ",
"  .XXX..XOOXXX..XXXXXXXXXXXXXXX@@@XXXOOOOX...OOXXX",
"  .XXX..XOOXXX..XXXXXXXXXXXXXXX@@@XXXOOOOX...OOXXX",
"XX.XXX..XOOXXX..XXXXXXX..XXXXXX@@@XXXXXOOXXX.OOO++",
"XX.XXX..XOOXXX..XXXXXXX..XXXXXX@@@XXXXXOOXXX.OOO++",
"XX.XXX..OOOX..XXXXXXXX.XXXXXXXXXX@@@X..XXOXXXXX+++",
"XX.XX...OXXX..XXXXXX..XXXXXXOOXXXXXXX..XXXXXXXXX++",
"XX.XX...OXXX..XXXXXX..XXXXXXOOXXXXXXX..XXXXXXXXX++",
"XXXXX.XXXXX.XXXXOXXXXXXXXOOOXX.XXXXXXXX..XXXXXX.++",
"XXXOOXXXXXX.XXOOO@@XXXXOOOOXXX.XXXXXXXX..XXX@XX.XX",
"XXXOOXXXXXX.XXOOO@@XXXXOOOOXXX.XXXXXXXX..XXX@XX.XX",
"XXOOOXXXXXX.XXOOX@@@XXXXXXXX...XXXXXXXXXXXXX@XX.XX",
"XXOXXXXXX...XXXXXXX@XXXXXXX...XXXXXXX..XXXXX@@@.XX",
"XXOXXXXXX...XXXXXXX@XXXXXXX...XXXXXXX..XXXXX@@@.XX",
"XXOXX@XX...XXXXX.XXXXXXXXXX.XXXXXXXXX..XXX@@@@@.XX",
"XXOXX@XX...XXXXX.XXXXXXXXXX.XXXXXXXXX..XXX@@@@@.XX",
"XXOXX@XXXXXXXXXX.XXXXXXXXXXXXXXXXXXX.XXXXXXX@XX.XX",
"XXOXX@@@XXXXXXXX.XXXXXXXXXXXOOOXXX..XXXXXXXXXXX.XX",
"XXOXX@@@XXXXXXXX.XXXXXXXXXXXOOOXXX..XXXXXXXXXXX.XX",
"XX.XX@@@@XXXXXXX...XXXOOOOOOXXXXX...XXXXXXXXX..XXX",
"XX.XXX@@XXXXOOXXX..XXXXXXXXXXXX...XXXXXXXXOOX..XXX",
"XX.XXX@@XXXXOOXXX..XXXXXXXXXXXX...XXXXXXXXOOX..XXX",
"XXX..XXXXXXXXXOOXXXXXX.XXXXX...XXOOOXXXXXOXX.XXX  ",
"XXX..XXXXXXXXXOOOXXXXX.XXXX.XXXOOOXXXXXXXXXXXXXX  ",
"XXX..XXXXXXXXXOOOXXXXX.XXXX.XXXOOOXXXXXXXXXXXXXX  ",
"  X...XXXXXXXXXXOOOXXXX..XXXXXOOOX@@@XXXXX..XXXX  ",
"  XXX.XXXOO.XXXXXXXOXXXXXXXXOOOXXX@@@XXXX.XXXOOX  ",
"  XXX.XXXOO.XXXXXXXOXXXXXXXXOOOXXX@@@XXXX.XXXOOX  ",
"  XXX.XXXOO.XXXXXXXXXXXXXXXXXXXXXX@@XXX..XXXOXX oo",
"  XXX.XXXOO.XXXXXXXXXXXXXXXXXXXXXX@@XXX..XXXOXX oo",
"oo XXX..XOOX..XXXXXXXX...XXXXXXXX@@@XXX..XXXOXX oo",
"oo XXXXXXOOOXX..XXXXXXX..........XXXX....XOOOXX oo",
"oo XXXXXXOOOXX..XXXXXXX..........XXXX....XOOOXX oo",
"oo XXXXXXXXOOO..XXXXXXXXXXXXXXXXXXXX...XXOOOX  ooo",
"ooo  X...XXXOOOO...XXXXXX@@XXXXXX...XXXXXOXXX  ooo",
"ooo  X...XXXOOOO...XXXXXX@@XXXXXX...XXXXXOXXX  ooo",
"ooo  XXX...XXXXXX..XXXX@@@@XXXX..XXXXXXOOXXX ooooo",
"ooooo   X..XXXXXXXX...XXXXXXXXXXXXXXXXXXX   oooooo",
"ooooo   X..XXXXXXXX...XXXXXXXXXXXXXXXXXXX   oooooo"
};
