/* XPM */
static char *a05a5c96296b43d4fd7a930ad8892b871jmwgJqIusl6l7L7[] = {
/* columns rows colors chars-per-pixel */
"50 50 8 1 ",
"  c #996D0E",
". c #15FF00",
"X c #51CF27",
"o c #CF8C27",
"O c #AEFF00",
"+ c #FFF200",
"@ c #5CD0DB",
"# c white",
/* pixels */
"oooooo     XXXXXXXXXOOOOOOOXXXXXXXXXXXX..X  oooooo",
"oooooo     XXXXXXXXXOOOOOOOXXXXXXXXXXXX..X  oooooo",
"ooooo XXXXXXXX...XXXXXXXXXXX###XXXXXXXX...XX ooooo",
"ooo  XXXXXX...XXXXXXXXX....XXX#XXXXXXXXXX...X  ooo",
"ooo  XXXXXX...XXXXXXXXX....XXX#XXXXXXXXXX...X  ooo",
"ooo  XXXX..XXXXXXXXX...++++++++++XXXXXXXXX..X  ooo",
"oo XXXXXXXXXXXXXOXX.++++++++++++++++XXXXXXXX.XX oo",
"oo XXXXXXXXXXXXXOX++++++++++++++++++++XXXXXX.XX oo",
"oo XXXXX.###XXOOO++++++++++++++++++++++XXXXXXXX oo",
"  X..X...##XOOO++++++++++++++++++++++++++XXXXXXX  ",
"  X..X...##XOO+++++++++++++++++++++++++++XXXXXXX  ",
"  ...X..XXXOX+++++++++++++++++++++++++++X...XOOX  ",
"  .XXX..XOOX+++++++++++++++++++++++++++OOX...OOXXX",
"  .XXX..XOOX++++++++++++++++++++++++++OOOX...OOXXX",
"XX.XXX..XOO++++++++++++++++++++++++++XXOOXXX.OOO@@",
"XX.XXX..XO++++++++++++++++++++++++++XXXOOXXX.OOO@@",
"XX.XXX..OO+++++++++++++++++++++++++#X..XXOXXXXX@@@",
"XX.XX...O+++++++++++++++++++++++++XXX..XXXXXXXXX@@",
"XX.XX...O+++++++++++++++++++++++++XXX..XXXXXXXXX@@",
"XXXXX.XXX++++++++++++++++++++++++XXXXXX..XXXXXX.@@",
"XXXOOXXX++++++++++++++++++++++++XXXXXXX..XXX#XX.XX",
"XXXOOXXX+++++++++++++++++++++++XXXXXXXX..XXX#XX.XX",
"XXOOOXXX++++++++++++++++++++++.XXXXXXXXXXXXX#XX.XX",
"XXOXXXXX+++++++++++++++++++++.XXXXXXX..XXXXX###.XX",
"XXOXXXXX++++++++++++++++++++..XXXXXXX..XXXXX###.XX",
"XXOXX#XX+++++++++++++++++++++XXXXXXXX..XXX#####.XX",
"XXOXX#XX++++++++++++++++++++++XXXXXXX..XXX#####.XX",
"XXOXX#XX+++++++++++++++++++++++XXXXX.XXXXXXX#XX.XX",
"XXOXX###++++++++++++++++++++++++XX..XXXXXXXXXXX.XX",
"XXOXX###X++++++++++++++++++++++++X..XXXXXXXXXXX.XX",
"XX.XX####+++++++++++++++++++++++++..XXXXXXXXX..XXX",
"XX.XXX##X+++++++++++++++++++++++++++XXXXXXOOX..XXX",
"XX.XXX##XX+++++++++++++++++++++++++++XXXXXOOX..XXX",
"XXX..XXXXX++++++++++++++++++++++++++++XXXOXX.XXX  ",
"XXX..XXXXXX++++++++++++++++++++++++++++XXXXXXXXX  ",
"XXX..XXXXXXX++++++++++++++++++++++++++++XXXXXXXX  ",
"  X...XXXXXX+++++++++++++++++++++++++++++X..XXXX  ",
"  XXX.XXXOO.X+++++++++++++++++++++++++++++XXXOOX  ",
"  XXX.XXXOO.XX++++++++++++++++++++++++++++XXXOOX  ",
"  XXX.XXXOO.XXX++++++++++++++++++++++++++XXXOXX oo",
"  XXX.XXXOO.XXXXX++++++++++++++++++++++..XXXOXX oo",
"oo XXX..XOOX..XXXX++++++++++++++++++++X..XXXOXX oo",
"oo XXXXXXOOOXX..XXXX++++++++++++++++X....XOOOXX oo",
"oo XXXXXXOOOXX..XXXXXXX++++++++++XXXX....XOOOXX oo",
"oo XXXXXXXXOOO..XXXXXXXXXXXXXXXXXXXX...XXOOOX  ooo",
"ooo  X...XXXOOOO...XXXXXX##XXXXXX...XXXXXOXXX  ooo",
"ooo  X...XXXOOOO...XXXXXX##XXXXXX...XXXXXOXXX  ooo",
"ooo  XXX...XXXXXX..XXXX####XXXX..XXXXXXOOXXX ooooo",
"ooooo   X..XXXXXXXX...XXXXXXXXXXXXXXXXXXX   oooooo",
"ooooo   X..XXXXXXXX...XXXXXXXXXXXXXXXXXXX   oooooo"
};
